<?xml version="1.0" encoding="UTF-8" standalone="no"?><!DOCTYPE svg PUBLIC "-//W3C//DTD SVG 1.1//EN" "http://www.w3.org/Graphics/SVG/1.1/DTD/svg11.dtd"><svg width="100%" height="100%" viewBox="0 0 67 67" version="1.1" xmlns="http://www.w3.org/2000/svg" xmlns:xlink="http://www.w3.org/1999/xlink" xml:space="preserve" xmlns:serif="http://www.serif.com/" style="fill-rule:evenodd;clip-rule:evenodd;stroke-linejoin:round;stroke-miterlimit:2;"><path id="Layer4" d="M51.084,15.983c0.568,0.021 0.268,0.005 0.634,0.024l0.56,0.016c0.773,0.011 0.1,0.001 1.015,0l0.369,-0c2.924,0.185 3.179,1.068 4.063,2.124c0.025,0.108 0.023,0.103 0.096,0.187c0.391,0.825 0.52,1.92 0.642,2.121l0.094,0.182c0.288,0.342 0.942,0.754 1.508,1.632c0.217,0.337 0.697,0.767 1.14,1.888c0.018,0.046 0.137,0.345 0.258,0.559c0.001,0.002 0.464,1.235 0.55,2.202c0.001,0.015 0.003,0.013 0.04,0.181c0.004,0.184 0.019,0.509 0.021,0.554l0,0.923c-0.001,0.029 -0.004,0.021 -0.023,0.367c-0.147,0.749 -0.182,0.725 -0.33,1.483c-0.028,0.144 -0.041,0.133 -0.029,0.274c0.023,0.256 1.289,6.348 1.41,7.372c0.043,0.365 0.148,0.344 0.812,4.521c0.018,0.11 -0.01,0.111 0.131,1.389c0.344,3.12 -0.324,6.081 -1.393,7.593c-0.605,0.856 -0.984,1.824 -3.473,2.982c-0.19,0.088 -0.684,0.318 -2.568,0.495l-0.277,-0.05l-0.092,0.051c-0.638,-0.087 -0.656,0.03 -2.034,-0.34c-0.134,-0.024 -0.126,-0.032 -0.257,-0.054c-0.331,-0.144 -2.525,-1.095 -3.49,-2.861c-0.088,-0.138 -0.078,-0.132 -0.184,-0.267c-0.023,-0.044 -0.248,-0.48 -0.312,-0.538c-0.265,-0.241 -1.419,-3.505 -1.473,-3.6l-0,-0.093c-0.046,-0.168 -0.033,-0.17 -0.141,-0.305c0.013,-0.138 -0.001,-0.126 -0.032,-0.251l-0.097,-0.184c-0.274,-1.052 -1.033,-2.987 -1.107,-3.322c-0.044,-0.259 -0.152,-0.125 -0.372,0.003c-1.181,0.666 -2.205,0.746 -2.403,0.787c-0.144,0.03 -0.173,0.045 -0.178,0.046c-0.374,0.098 -0.197,0.052 -0.462,0.079c-0.956,-0.045 -0.415,0.001 -1.397,-0.085c-0.4,-0.035 -0.209,-0.018 -0.55,-0.044l-0.27,-0.041c-0.299,-0.154 -2.049,-0.437 -3.166,-1.916c-0.027,-0.036 -0.162,-0.214 -0.443,-0.355l-0.263,-0.017l-0.18,0.002l-0.374,-0.001l-0.089,-0.002c-0.418,-0.019 -0.411,-0.015 -0.834,0.002l-1.102,-0.001c-0.043,-0.004 -0.04,-0.002 -0.554,-0.009c-0.372,-0.002 -0.362,-0.006 -0.74,0.003c-0.521,0.004 -0.519,0.003 -0.554,0.006l-0.088,-0l-0.373,-0.002l-0.089,-0.001c-0.331,-0.028 -0.323,-0.011 -0.647,-0l-0.275,0.001c-0.238,-0.015 -0.232,-0.022 -0.466,0.001l-0.179,0.001c-0.047,-0.004 -0.044,-0.003 -0.555,-0.007l-0.372,0.006l-0.548,0.002c-0.399,-0.003 -0.39,-0.004 -0.463,-0.002c-0.291,-0.01 -0.287,-0.038 -0.557,0.045c-0.137,0.08 -0.18,0.011 -0.305,0.178c-0.318,0.424 -0.985,0.966 -1.078,1.042c-0.617,0.502 -2.377,1.31 -3.871,1.18c-0.052,-0.005 -0.052,0.013 -0.65,-0.044c-0.544,-0.052 -0.009,0.004 -0.557,-0.063l-0.273,-0.051c-0.494,-0.29 -0.546,-0.135 -1.212,-0.432c-0.363,-0.159 -0.837,-0.356 -0.91,-0.387c-0.099,-0.042 -0.1,-0.159 -0.154,-0.065c-0.025,0.043 0.004,0.104 -0.02,0.146c-0.061,0.091 -0.055,0.093 -0.492,1.277c-0.403,1.09 -0.393,1.189 -0.382,1.296c0.008,0.078 -0.112,0.04 -0.337,0.926c-0.126,0.495 -1.302,3.457 -1.421,3.756c-0.023,0.059 -0.881,1.608 -1.469,2.208c-2.055,2.096 -3.583,2.099 -4.391,2.264c-1.604,0.328 -4.094,-0.424 -4.717,-0.926c-0.038,-0.031 -0.513,-0.16 -1.657,-1.391c-0.519,-0.558 -0.444,-0.604 -0.882,-1.232c-0.12,-0.171 -0.493,-1.063 -0.532,-1.157c-0.382,-0.913 -0.321,-1.212 -0.502,-1.681l-0.049,-0.271c-0.04,-0.928 -0.185,-0.909 -0.181,-1.846c0.001,-0.249 -0.035,-2.289 0.106,-2.955c0.165,-0.778 0.011,-0.796 0.226,-1.557c0.021,-0.072 -0.045,-0.081 0.115,-0.935c0.033,-0.174 -0.007,-0.345 0.118,-0.922c0.107,-0.492 0.069,-0.491 1.18,-6.18c0.381,-1.949 0.424,-1.927 0.641,-2.866c0.026,-0.115 -0.015,-0.348 -0.052,-0.448c-0.036,-0.097 -0.157,-0.683 -0.167,-0.744c-0.091,-0.457 -0.058,-0.456 -0.132,-0.92c-0.266,-3.397 1.057,-5.317 1.401,-5.997l0.124,-0.159c0.42,-0.73 1.691,-1.957 1.852,-2.113c0.466,-0.45 0.239,-0.561 0.489,-1.149c0.084,-0.196 0.045,-0.391 0.364,-1.021c0.173,-0.342 0.175,-0.337 0.187,-0.368c0.306,-0.792 1.727,-1.674 1.885,-1.725c0.847,-0.271 1.775,-0.371 1.932,-0.388c0.163,0.008 0.158,0.004 0.553,0.001l0.369,-0.001l0.553,0l0.646,0.002l0.461,-0l0.276,-0l0.461,0.001c0.044,0.004 0.041,-0.008 0.555,0.033l0.268,0.084c2.72,0.283 3.345,2.713 3.714,2.901c0.325,0.166 3.102,0.067 6.623,0.086c3.705,0.02 3.775,-0.001 3.924,-0.263c0.138,-0.242 0.238,-1.68 -0.167,-2.071c-0.963,-0.931 -1.253,-2.718 -0.271,-3.975c0.173,-0.221 0.385,-0.426 0.639,-0.607c0.987,-0.701 1.782,-0.747 3.158,-0.323c0.235,0.073 3.012,1.749 1.264,4.487c-0.173,0.271 -0.738,0.518 -0.581,2.143c0.074,0.762 0.655,0.605 1.811,0.619c4.442,-0.019 4.433,-0.014 5.811,0.006c0.65,-0.006 0.639,-0.01 1.291,-0.003l0.092,-0.001c1.975,-0.019 2.172,0.123 2.546,-0.635c0.137,-0.278 1.052,-2.128 3.089,-2.344c0.094,-0.022 0.444,-0.105 1.195,-0.176Zm6.163,10.911c-1.131,0 -2.049,0.918 -2.049,2.049c0,1.131 0.918,2.049 2.049,2.049c1.131,0 2.049,-0.918 2.049,-2.049c0,-1.131 -0.918,-2.049 -2.049,-2.049Zm-41.339,6.432l0.799,-1.958c0.091,-0.223 0.065,-0.476 -0.069,-0.675c-0.134,-0.2 -0.359,-0.319 -0.599,-0.319l-2.256,0c-0.24,-0 -0.465,0.12 -0.599,0.319c-0.134,0.2 -0.16,0.453 -0.069,0.675l0.799,1.958c0.165,0.405 0.56,0.67 0.998,0.67c0.438,0 0.832,-0.265 0.998,-0.67Zm-1.995,-9.818l-0.799,1.958c-0.091,0.223 -0.065,0.476 0.069,0.675c0.134,0.2 0.359,0.319 0.599,0.319l2.256,-0c0.24,0 0.465,-0.12 0.599,-0.319c0.134,-0.2 0.16,-0.453 0.069,-0.675l-0.799,-1.958c-0.165,-0.405 -0.56,-0.67 -0.998,-0.67c-0.438,-0 -0.832,0.265 -0.998,0.67Zm35.355,1.884c-1.131,0 -2.049,0.918 -2.049,2.049c0,1.131 0.918,2.049 2.049,2.049c1.131,0 2.049,-0.918 2.049,-2.049c0,-1.131 -0.918,-2.049 -2.049,-2.049Zm-39.267,4.022l1.958,0.799c0.223,0.091 0.476,0.065 0.675,-0.069c0.2,-0.134 0.319,-0.359 0.319,-0.599l-0,-2.256c0,-0.24 -0.12,-0.465 -0.319,-0.599c-0.2,-0.134 -0.453,-0.16 -0.675,-0.069l-1.958,0.799c-0.405,0.165 -0.67,0.56 -0.67,0.998c-0,0.438 0.265,0.832 0.67,0.998Zm29.213,-0.998l-4.429,0c-0.237,-0 -0.464,0.094 -0.631,0.261c-0.167,0.167 -0.261,0.395 -0.261,0.631c0,0.237 0.094,0.464 0.261,0.631c0.167,0.167 0.395,0.261 0.631,0.261l4.429,-0c0.237,0 0.464,-0.094 0.631,-0.261c0.167,-0.167 0.261,-0.395 0.261,-0.631c0,-0.237 -0.094,-0.464 -0.261,-0.631c-0.167,-0.167 -0.395,-0.261 -0.631,-0.261Zm14.482,-5.622c-1.131,0 -2.049,0.918 -2.049,2.049c0,1.131 0.918,2.049 2.049,2.049c1.131,0 2.049,-0.918 2.049,-2.049c0,-1.131 -0.918,-2.049 -2.049,-2.049Zm-1.022,6.696c-1.131,0 -2.049,0.918 -2.049,2.049c0,1.131 0.918,2.049 2.049,2.049c1.131,0 2.049,-0.918 2.049,-2.049c0,-1.131 -0.918,-2.049 -2.049,-2.049Zm-32.854,-2.072l-1.958,-0.799c-0.223,-0.091 -0.476,-0.065 -0.675,0.069c-0.2,0.134 -0.319,0.359 -0.319,0.599l0,2.256c-0,0.24 0.12,0.465 0.319,0.599c0.2,0.134 0.453,0.16 0.675,0.069l1.958,-0.799c0.405,-0.165 0.67,-0.56 0.67,-0.998c0,-0.438 -0.265,-0.832 -0.67,-0.998Zm12.043,0.998l-4.429,0c-0.237,-0 -0.464,0.094 -0.631,0.261c-0.167,0.167 -0.261,0.395 -0.261,0.631c0,0.237 0.094,0.464 0.261,0.631c0.167,0.167 0.395,0.261 0.631,0.261l4.429,-0c0.237,0 0.464,-0.094 0.631,-0.261c0.167,-0.167 0.261,-0.395 0.261,-0.631c0,-0.237 -0.094,-0.464 -0.261,-0.631c-0.167,-0.167 -0.395,-0.261 -0.631,-0.261Zm-8.03,7.368c-1.844,0 -3.342,1.497 -3.342,3.342c0,1.844 1.497,3.342 3.342,3.342c1.844,0 3.342,-1.497 3.342,-3.342c0,-1.844 -1.497,-3.342 -3.342,-3.342Zm19.249,0c-1.844,0 -3.342,1.497 -3.342,3.342c0,1.844 1.497,3.342 3.342,3.342c1.844,0 3.342,-1.497 3.342,-3.342c0,-1.844 -1.497,-3.342 -3.342,-3.342Z" style="fill:url(#_Linear1);"/><defs><linearGradient id="_Linear1" x1="0" y1="0" x2="1" y2="0" gradientUnits="userSpaceOnUse" gradientTransform="matrix(70.892772,0,0,43.43503,-16.089152,31.11968)"><stop offset="0" style="stop-color:#ffff0c;stop-opacity:1"/><stop offset="1" style="stop-color:#ff4b08;stop-opacity:1"/></linearGradient></defs></svg>